# xmcd
#
# Track frame offsets: 
#        150
#        16152
#        37250
#        58240
#        76813
#        95953
#        113176
#        135062
#        148708
#        161696
#        178864
#        237226
#
# Disc length: 4583 seconds
#
# Revision: 0
# Processed by: cddbd v1.5.2PL0 Copyright (c) Steve Scherf et al.
# Submitted via: ExactAudioCopy v0.99pb4
#
DISCID=a211e50c
DTITLE=The Dewey Wayne Band - Here for the Music
DYEAR=2009
DGENRE=Country
TTITLE0=Real Good Lovin'
TTITLE1=I Call Dixie My Home
TTITLE2=The Fyffe, Alabama UFO Blues
TTITLE3=Songs About Drinkin'
TTITLE4=Destination Misery
TTITLE5=True Country Music
TTITLE6=Live This Life with Me
TTITLE7=Being Bad
TTITLE8=I Reckon
TTITLE9=Here for the Music
TTITLE10=Old No. 7 and a .30-06
TTITLE11=Video
EXTD=
EXTT0=
EXTT1=
EXTT2=
EXTT3=
EXTT4=
EXTT5=
EXTT6=
EXTT7=
EXTT8=
EXTT9=
EXTT10=
EXTT11=
PLAYORDER=
